<svg width="25" height="24" viewBox="0 0 25 24" fill="none" xmlns="http://www.w3.org/2000/svg">
<path d="M5.58594 6.0022H19.086C19.5002 6.0022 19.836 6.33798 19.836 6.7522V17.2522C19.836 17.6664 19.5002 18.0022 19.086 18.0022H5.58594C5.17173 18.0022 4.83594 17.6664 4.83594 17.2522V6.7522C4.83594 6.33798 5.17173 6.0022 5.58594 6.0022ZM8.20756 7.5H6.33256V9.375C7.36809 9.375 8.20756 8.53553 8.20756 7.5ZM16.4576 7.5C16.4576 8.53553 17.2971 9.375 18.3326 9.375V7.5H16.4576ZM6.33256 14.625V16.5H8.20756C8.20756 15.4645 7.36809 14.625 6.33256 14.625ZM16.4576 16.5H18.3326V14.625C17.2971 14.625 16.4576 15.4645 16.4576 16.5ZM12.3326 15C13.9894 15 15.3326 13.6568 15.3326 12C15.3326 10.3431 13.9894 9 12.3326 9C10.6757 9 9.33255 10.3431 9.33255 12C9.33255 13.6568 10.6757 15 12.3326 15Z" fill="#91DD05"/>
</svg>
