<svg width="25" height="24" viewBox="0 0 25 24" fill="none" xmlns="http://www.w3.org/2000/svg">
<path d="M18.3943 15.1825L17.1217 13.9081L18.3943 12.6355C18.8152 12.2183 19.1495 11.722 19.3781 11.1753C19.6067 10.6285 19.725 10.042 19.7263 9.44943C19.7276 8.85683 19.6118 8.2698 19.3857 7.72205C19.1595 7.17431 18.8273 6.67663 18.4083 6.2576C17.9893 5.83856 17.4916 5.50642 16.9438 5.28024C16.3961 5.05406 15.8091 4.93829 15.2165 4.93959C14.6239 4.94089 14.0373 5.05922 13.4906 5.2878C12.9438 5.51638 12.4476 5.8507 12.0304 6.27156L10.7578 7.54506L9.48433 6.27246L10.7587 4.99986C11.9403 3.81832 13.5428 3.15454 15.2137 3.15454C16.8847 3.15454 18.4872 3.81832 19.6687 4.99986C20.8503 6.1814 21.5141 7.78391 21.5141 9.45486C21.5141 11.1258 20.8503 12.7283 19.6687 13.9099L18.3952 15.1825H18.3943ZM15.8491 17.7277L14.5756 19.0003C13.3941 20.1818 11.7916 20.8456 10.1206 20.8456C8.44969 20.8456 6.84717 20.1818 5.66563 19.0003C4.48409 17.8187 3.82031 16.2162 3.82031 14.5453C3.82031 12.8743 4.48409 11.2718 5.66563 10.0903L6.93913 8.81766L8.21173 10.0921L6.93913 11.3647C6.51827 11.7819 6.18395 12.2781 5.95537 12.8248C5.72679 13.3716 5.60846 13.9581 5.60716 14.5507C5.60586 15.1433 5.72163 15.7303 5.94781 16.2781C6.17399 16.8258 6.50613 17.3235 6.92517 17.7425C7.3442 18.1616 7.84188 18.4937 8.38963 18.7199C8.93737 18.9461 9.5244 19.0618 10.117 19.0605C10.7096 19.0592 11.2961 18.9409 11.8429 18.7123C12.3896 18.4838 12.8858 18.1494 13.303 17.7286L14.5756 16.456L15.8491 17.7286V17.7277ZM15.2119 8.18136L16.4854 9.45486L10.1215 15.8179L8.84803 14.5453L15.2119 8.18226V8.18136Z" fill="#91DD05"/>
</svg>
