<svg width="25" height="24" viewBox="0 0 25 24" fill="none" xmlns="http://www.w3.org/2000/svg">
<path d="M12.6668 7.49992C14.5764 7.49992 16.4077 8.25849 17.758 9.60875C19.1082 10.959 19.8668 12.7904 19.8668 14.6999C19.8668 16.6095 19.1082 18.4408 17.758 19.7911C16.4077 21.1414 14.5764 21.8999 12.6668 21.8999C10.7572 21.8999 8.92589 21.1414 7.57563 19.7911C6.22537 18.4408 5.4668 16.6095 5.4668 14.6999C5.4668 12.7904 6.22537 10.959 7.57563 9.60875C8.92589 8.25849 10.7572 7.49992 12.6668 7.49992ZM12.6668 9.29992C11.2346 9.29992 9.86112 9.86885 8.84842 10.8815C7.83572 11.8942 7.2668 13.2678 7.2668 14.6999C7.2668 16.1321 7.83572 17.5056 8.84842 18.5183C9.86112 19.531 11.2346 20.0999 12.6668 20.0999C14.099 20.0999 15.4725 19.531 16.4852 18.5183C17.4979 17.5056 18.0668 16.1321 18.0668 14.6999C18.0668 13.2678 17.4979 11.8942 16.4852 10.8815C15.4725 9.86885 14.099 9.29992 12.6668 9.29992ZM12.6668 10.6499L13.8575 13.0619L16.5188 13.4489L14.5928 15.3254L15.0473 17.9768L12.6668 16.7249L10.2863 17.9759L10.7408 15.3254L8.8148 13.448L11.4761 13.061L12.6668 10.6499ZM18.0668 2.99992V5.69992L16.8401 6.72412C15.8221 6.19005 14.7108 5.85727 13.5668 5.74402V2.99992H18.0668ZM11.7668 2.99902V5.74402C10.6232 5.85711 9.51214 6.18957 8.4944 6.72322L7.2668 5.69992V2.99992L11.7668 2.99902Z" fill="#91DD05"/>
</svg>
