<svg width="24" height="24" viewBox="0 0 24 24" fill="none" xmlns="http://www.w3.org/2000/svg">
<path d="M12.9004 13.8H11.1004C9.62403 13.7994 8.1756 14.2024 6.91168 14.9654C5.64776 15.7283 4.61643 16.8223 3.92919 18.129C3.90987 17.8864 3.90027 17.6432 3.90039 17.4C3.90039 12.4293 7.92969 8.39995 12.9004 8.39995V3.44995L22.3504 11.1L12.9004 18.75V13.8ZM11.1004 12H14.7004V14.9772L19.4893 11.1L14.7004 7.22275V10.2H12.9004C11.8656 10.1988 10.8428 10.4212 9.90194 10.8519C8.96108 11.2827 8.12438 11.9116 7.44909 12.6957C8.61128 12.235 9.85026 11.999 11.1004 12Z" fill="#91DD05"/>
</svg>
