<svg width="24" height="24" viewBox="0 0 24 24" fill="none" xmlns="http://www.w3.org/2000/svg">
<path d="M6.9442 6.5713C8.37856 5.42206 10.1624 4.79717 12.0004 4.8001C13.9129 4.8001 15.6706 5.4625 17.0566 6.5713L18.3643 5.2636L19.6369 6.5362L18.3292 7.8439C19.2811 9.03563 19.8772 10.4719 20.0489 11.9875C20.2206 13.5031 19.9609 15.0363 19.2996 16.4108C18.6384 17.7852 17.6025 18.9451 16.3112 19.7568C15.0199 20.5686 13.5257 20.9992 12.0004 20.9992C10.4751 20.9992 8.98088 20.5686 7.68957 19.7568C6.39826 18.9451 5.36238 17.7852 4.70114 16.4108C4.03991 15.0363 3.78019 13.5031 3.95187 11.9875C4.12355 10.4719 4.71966 9.03563 5.6716 7.8439L4.3639 6.5371L5.6365 5.2645L6.9442 6.5722V6.5713ZM12.0004 19.2001C12.8277 19.2001 13.6469 19.0371 14.4113 18.7205C15.1757 18.4039 15.8702 17.9399 16.4552 17.3549C17.0402 16.7699 17.5042 16.0754 17.8208 15.311C18.1374 14.5467 18.3004 13.7274 18.3004 12.9001C18.3004 12.0728 18.1374 11.2535 17.8208 10.4892C17.5042 9.72484 17.0402 9.03033 16.4552 8.44533C15.8702 7.86032 15.1757 7.39626 14.4113 7.07966C13.6469 6.76305 12.8277 6.6001 12.0004 6.6001C10.3295 6.6001 8.7271 7.26385 7.54562 8.44533C6.36414 9.6268 5.7004 11.2292 5.7004 12.9001C5.7004 14.571 6.36414 16.1734 7.54562 17.3549C8.7271 18.5364 10.3295 19.2001 12.0004 19.2001ZM12.9004 12.0001H15.6004L11.1004 17.8501V13.8001H8.4004L12.9004 7.9456V12.0001ZM8.4004 2.1001H15.6004V3.9001H8.4004V2.1001Z" fill="#91DD05"/>
</svg>
